<svg width="134" height="135" viewBox="0 0 134 135" fill="none" xmlns="http://www.w3.org/2000/svg">
<mask id="path-1-inside-1_148_2575" fill="white">
<path fill-rule="evenodd" clip-rule="evenodd" d="M89.7134 98.8613L32.1006 101.93L32.0965 101.852L32.0197 101.856L29.0418 45.9479L41.4603 45.2865L43.2767 79.3878L91.952 25.2355L101.194 33.5426L51.8636 88.4235L89.0519 86.4427L89.7134 98.8613Z"/>
</mask>
<path fill-rule="evenodd" clip-rule="evenodd" d="M89.7134 98.8613L32.1006 101.93L32.0965 101.852L32.0197 101.856L29.0418 45.9479L41.4603 45.2865L43.2767 79.3878L91.952 25.2355L101.194 33.5426L51.8636 88.4235L89.0519 86.4427L89.7134 98.8613Z" fill="#242424"/>
<path d="M32.1006 101.93L29.1049 102.089L29.2645 105.085L32.2602 104.926L32.1006 101.93ZM89.7134 98.8613L89.8729 101.857L92.8687 101.697L92.7091 98.7017L89.7134 98.8613ZM32.0965 101.852L35.0923 101.693L34.9327 98.697L31.9369 98.8565L32.0965 101.852ZM32.0197 101.856L29.0239 102.016L29.1835 105.012L32.1792 104.852L32.0197 101.856ZM29.0418 45.9479L28.8822 42.9522L25.8865 43.1117L26.046 46.1075L29.0418 45.9479ZM41.4603 45.2865L44.4561 45.1269L44.2965 42.1312L41.3008 42.2907L41.4603 45.2865ZM43.2767 79.3878L40.2809 79.5474L40.6662 86.7798L45.5078 81.3933L43.2767 79.3878ZM91.952 25.2355L93.9575 23.0044L91.7263 20.9989L89.7209 23.23L91.952 25.2355ZM101.194 33.5426L103.425 35.5481L105.43 33.3169L103.199 31.3114L101.194 33.5426ZM51.8636 88.4235L49.6324 86.418L44.7907 91.8045L52.0231 91.4192L51.8636 88.4235ZM89.0519 86.4427L92.0476 86.2831L91.8881 83.2874L88.8923 83.4469L89.0519 86.4427ZM32.2602 104.926L89.8729 101.857L89.5538 95.8655L31.9411 98.9342L32.2602 104.926ZM29.1008 102.012L29.1049 102.089L35.0964 101.77L35.0923 101.693L29.1008 102.012ZM31.9369 98.8565L31.8601 98.8606L32.1792 104.852L32.2561 104.848L31.9369 98.8565ZM35.0154 101.697L32.0375 45.7884L26.046 46.1075L29.0239 102.016L35.0154 101.697ZM29.2013 48.9437L41.6199 48.2822L41.3008 42.2907L28.8822 42.9522L29.2013 48.9437ZM38.4646 45.446L40.2809 79.5474L46.2725 79.2282L44.4561 45.1269L38.4646 45.446ZM89.7209 23.23L41.0455 77.3823L45.5078 81.3933L94.1832 27.241L89.7209 23.23ZM103.199 31.3114L93.9575 23.0044L89.9465 27.4667L99.1883 35.7737L103.199 31.3114ZM54.0947 90.429L103.425 35.5481L98.9626 31.5371L49.6324 86.418L54.0947 90.429ZM88.8923 83.4469L51.704 85.4277L52.0231 91.4192L89.2115 89.4384L88.8923 83.4469ZM92.7091 98.7017L92.0476 86.2831L86.0561 86.6023L86.7176 99.0208L92.7091 98.7017Z" fill="#242424" mask="url(#path-1-inside-1_148_2575)"/>
<mask id="path-3-inside-2_148_2575" fill="white">
<path fill-rule="evenodd" clip-rule="evenodd" d="M90.0277 104.324L32.415 107.393L32.4105 107.309L32.3375 107.313L29.3596 51.4045L41.7782 50.7431L43.608 85.0964L97.8629 24.7366L107.105 33.0437L52.4278 93.8729L89.3662 91.9054L90.0277 104.324Z"/>
</mask>
<path fill-rule="evenodd" clip-rule="evenodd" d="M90.0277 104.324L32.415 107.393L32.4105 107.309L32.3375 107.313L29.3596 51.4045L41.7782 50.7431L43.608 85.0964L97.8629 24.7366L107.105 33.0437L52.4278 93.8729L89.3662 91.9054L90.0277 104.324Z" fill="white"/>
<path d="M32.415 107.393L29.4192 107.552L29.5788 110.548L32.5746 110.388L32.415 107.393ZM90.0277 104.324L90.1873 107.32L93.183 107.16L93.0234 104.164L90.0277 104.324ZM32.4105 107.309L35.4063 107.15L35.2467 104.154L32.2509 104.313L32.4105 107.309ZM32.3375 107.313L29.3417 107.473L29.5013 110.468L32.4972 110.309L32.3375 107.313ZM29.3596 51.4045L29.2 48.4088L26.2043 48.5683L26.3639 51.5641L29.3596 51.4045ZM41.7782 50.7431L44.7739 50.5835L44.6144 47.5877L41.6186 47.7473L41.7782 50.7431ZM43.608 85.0964L40.6122 85.256L40.9974 92.4884L45.8391 87.1019L43.608 85.0964ZM97.8629 24.7366L99.8684 22.5055L97.6373 20.5L95.6318 22.7312L97.8629 24.7366ZM107.105 33.0437L109.336 35.0492L111.341 32.818L109.11 30.8126L107.105 33.0437ZM52.4278 93.8729L50.1967 91.8674L45.355 97.2538L52.5874 96.8686L52.4278 93.8729ZM89.3662 91.9054L92.362 91.7458L92.2024 88.7501L89.2067 88.9096L89.3662 91.9054ZM32.5746 110.388L90.1873 107.32L89.8681 101.328L32.2554 104.397L32.5746 110.388ZM29.4148 107.469L29.4192 107.552L35.4107 107.233L35.4063 107.15L29.4148 107.469ZM32.2509 104.313L32.1778 104.317L32.4972 110.309L32.5702 110.305L32.2509 104.313ZM35.3333 107.153L32.3554 51.2449L26.3639 51.5641L29.3417 107.473L35.3333 107.153ZM29.5192 54.4003L41.9377 53.7388L41.6186 47.7473L29.2 48.4088L29.5192 54.4003ZM38.7824 50.9026L40.6122 85.256L46.6037 84.9369L44.7739 50.5835L38.7824 50.9026ZM95.6318 22.7312L41.3768 83.0909L45.8391 87.1019L100.094 26.7421L95.6318 22.7312ZM109.11 30.8126L99.8684 22.5055L95.8574 26.9678L105.099 35.2749L109.11 30.8126ZM54.659 95.8783L109.336 35.0492L104.874 31.0382L50.1967 91.8674L54.659 95.8783ZM89.2067 88.9096L52.2683 90.8771L52.5874 96.8686L89.5258 94.9011L89.2067 88.9096ZM93.0234 104.164L92.362 91.7458L86.3705 92.0649L87.0319 104.484L93.0234 104.164Z" fill="#242424" mask="url(#path-3-inside-2_148_2575)"/>
</svg>
