<svg width="16" height="16" viewBox="0 0 16 16" fill="none" xmlns="http://www.w3.org/2000/svg">
<g clip-path="url(#clip0_245_1351)">
<path d="M6.58254 7.51997C6.91457 7.35296 7.16559 7.16694 7.3376 6.96593C7.64363 6.6039 7.79464 6.12386 7.79464 5.52881C7.79464 4.94976 7.64363 4.45472 7.3416 4.03969C6.83756 3.36363 5.98449 3.0176 4.77839 2.9996H0V12.7534H4.45537C4.95741 12.7534 5.42245 12.7104 5.85248 12.6224C6.28252 12.5334 6.65455 12.3704 6.96957 12.1323C7.2496 11.9253 7.48361 11.6683 7.66963 11.3653C7.96365 10.9072 8.11067 10.3882 8.11067 9.81016C8.11067 9.25011 7.98166 8.77307 7.72563 8.38104C7.46661 7.98901 7.08658 7.70199 6.58254 7.51997ZM1.97116 4.69374H4.12334C4.59638 4.69374 4.98641 4.74475 5.29243 4.84575C5.64646 4.99277 5.82348 5.29179 5.82348 5.74783C5.82348 6.15686 5.68847 6.44288 5.42145 6.6039C5.15242 6.76491 4.80339 6.84592 4.37536 6.84592H1.97116V4.69374ZM5.37444 10.8892C5.13642 11.0043 4.80139 11.0613 4.37236 11.0613H1.97116V8.46005H4.40536C4.8294 8.46305 5.15942 8.51905 5.39544 8.62406C5.81548 8.81408 6.02449 9.1621 6.02449 9.67115C6.02449 10.2712 5.80848 10.6752 5.37444 10.8892Z" fill="#242424"/>
<path d="M14.462 3.45465H10.2246V4.66875H14.462V3.45465Z" fill="#242424"/>
<path d="M15.9346 8.24604C15.8466 7.68099 15.6526 7.18395 15.3506 6.75491C15.0196 6.26887 14.5995 5.91285 14.0885 5.68783C13.5795 5.46181 13.0064 5.3488 12.3684 5.3498C11.2973 5.3498 10.4272 5.68483 9.75415 6.34988C9.0831 7.01694 8.74707 7.97601 8.74707 9.22612C8.74707 10.5592 9.1181 11.5223 9.86416 12.1134C10.6072 12.7054 11.4653 13.0004 12.4394 13.0004C13.6185 13.0004 14.5355 12.6494 15.1906 11.9493C15.6096 11.5073 15.8466 11.0723 15.8986 10.6452H13.9465C13.8335 10.8563 13.7025 11.0213 13.5525 11.1413C13.2804 11.3613 12.9264 11.4713 12.4924 11.4713C12.0793 11.4713 11.7293 11.3803 11.4373 11.1993C10.9552 10.9093 10.7032 10.4012 10.6712 9.67815H15.9986C16.0067 9.0551 15.9866 8.57606 15.9346 8.24604ZM10.7192 8.43305C10.7892 7.96401 10.9592 7.59198 11.2293 7.31696C11.4993 7.04294 11.8813 6.90493 12.3704 6.90393C12.8214 6.90393 13.1984 7.03294 13.5055 7.29196C13.8085 7.55298 13.9795 7.93201 14.0145 8.43305H10.7192Z" fill="#242424"/>
</g>
<defs>
<clipPath id="clip0_245_1351">
<rect width="16" height="16" fill="white"/>
</clipPath>
</defs>
</svg>
