<svg width="16" height="16" viewBox="0 0 16 16" fill="none" xmlns="http://www.w3.org/2000/svg">
<path d="M3.578 5H0V16H3.578V5Z" fill="#242424"/>
<path d="M13.324 5.129C13.286 5.117 13.25 5.104 13.21 5.093C13.162 5.082 13.114 5.073 13.065 5.065C12.875 5.027 12.667 5 12.423 5C10.337 5 9.014 6.517 8.578 7.103V5H5V16H8.578V10C8.578 10 11.282 6.234 12.423 9C12.423 11.469 12.423 16 12.423 16H16V8.577C16 6.915 14.861 5.53 13.324 5.129Z" fill="#242424"/>
<path d="M1.75 3.5C2.7165 3.5 3.5 2.7165 3.5 1.75C3.5 0.783502 2.7165 0 1.75 0C0.783502 0 0 0.783502 0 1.75C0 2.7165 0.783502 3.5 1.75 3.5Z" fill="#242424"/>
</svg>
