<svg width="294" height="51" viewBox="0 0 294 51" fill="none" xmlns="http://www.w3.org/2000/svg">
<path fill-rule="evenodd" clip-rule="evenodd" d="M221.422 6.84322L243.173 5.49524L241.263 0.906558L98.7258 9.73997L88.4439 9.60524L88.8096 11.6365L83.3443 11.5649L25.3634 9.03648L26.441 12.7004L22.5518 12.5756L22.9612 16.1525L22.1708 16.175L22.6382 17.882L17.7005 17.8892L18.5729 21.8464L8.42519 22.3289L9.98652 26.9441L10.2706 26.9305L10.0717 27.3685L17.2174 27.8124L15.9767 30.8248L21.3732 31.0391L13.7616 31.192L12.1492 31.0918L12.0885 31.2255L11.7895 31.2316L11.1202 33.3579L10.5107 34.7002L1.83731 34.3844L0.0354667 39.0232L0.685871 39.0468L0.413115 40.1591L8.64606 39.7815L10.0151 43.8284L22.6851 43.2261L23.2199 45.7885L61.756 45.4666L61.5607 45.4854L63.5517 50.0126L87.0787 47.7536L86.8157 48.8261L165.887 45.1991L185.252 45.9041L187.007 46.0137L187.028 45.9688L188.814 46.0338L189.448 44.4001L214.856 44.1879L271.692 46.2572L273.447 46.3668L273.468 46.3219L275.254 46.3869L276.328 43.6236L285.022 44.1663L287.115 39.5776L279.273 39.0881L291.515 39.0211L293.017 34.305L291.203 34.3149L291.094 33.3677L287.631 33.2565L286.908 29.2393L279.102 29.137L279.095 29.078L293.435 28.6692L292.164 24.0267L287.207 24.168L286.049 20.7472L279.578 21.0548L278.78 18.1415L278.772 18.0719L278.761 18.0716L278.481 17.0467L265.598 17.414L265.454 16.6156L287.111 16.8994L286.264 12.1975L279.39 12.1074L278.466 8.7329L265.361 9.10648L264.125 5.45284L221.635 7.47284L221.422 6.84322Z" fill="black"/>
</svg>
