<svg width="631" height="106" viewBox="0 0 631 106" fill="none" xmlns="http://www.w3.org/2000/svg">
<path fill-rule="evenodd" clip-rule="evenodd" d="M475.423 12.8762L522.127 9.98188L518.026 0.12917L211.973 19.0961L189.896 18.8068L190.681 23.1683L178.946 23.0145L54.4513 17.5856L56.7652 25.4527L48.4144 25.1847L49.2935 32.8648L47.5963 32.9132L48.5999 36.5784L37.9978 36.5939L39.8709 45.0908L18.082 46.1266L21.4344 56.0363L22.0444 56.0073L21.6174 56.9475L36.9603 57.9007L34.2965 64.369L45.8837 64.829L29.5403 65.1573L26.0781 64.9422L25.9477 65.2294L25.3058 65.2423L23.8687 69.8079L22.5599 72.6902L3.93665 72.0121L0.0677658 81.9723L1.4643 82.0231L0.878644 84.4114L18.5562 83.6005L21.4959 92.29L48.7006 90.9967L49.8489 96.4986L132.593 95.8075L132.173 95.8477L136.448 105.569L186.965 100.718L186.4 103.021L356.179 95.233L397.761 96.7469L401.529 96.9821L401.573 96.8857L405.408 97.0253L406.771 93.5175L461.326 93.0618L583.363 97.505L587.131 97.7402L587.175 97.6438L591.011 97.7835L593.316 91.8502L611.984 93.0154L616.478 83.1628L599.64 82.1117L625.925 81.9679L629.151 71.8415L625.255 71.8628L625.022 69.8289L617.586 69.5902L616.033 60.9646L599.272 60.745L599.257 60.6182L630.049 59.7404L627.32 49.7722L616.675 50.0756L614.19 42.7304L600.295 43.391L598.582 37.1356L598.565 36.9862L598.541 36.9855L597.939 34.785L570.277 35.5735L569.968 33.8592L616.469 34.4685L614.651 24.3727L599.892 24.1793L597.908 16.9337L569.769 17.7358L567.115 9.89085L475.88 14.2281L475.423 12.8762Z" fill="white"/>
</svg>
