<svg width="111" height="222" viewBox="0 0 111 222" fill="none" xmlns="http://www.w3.org/2000/svg">
<g opacity="0.9">
<mask id="mask0_148_2608" style="mask-type:alpha" maskUnits="userSpaceOnUse" x="-111" y="0" width="222" height="222">
<circle cy="111" r="111" fill="white"/>
</mask>
<g mask="url(#mask0_148_2608)">
<line y1="-1.5" x2="449.222" y2="-1.5" transform="matrix(0.767686 -0.640826 0.767686 0.640826 -344.847 287.873)" stroke="white" stroke-width="3"/>
<line y1="-1.5" x2="449.222" y2="-1.5" transform="matrix(0.767686 -0.640826 0.767686 0.640826 -336.859 287.873)" stroke="white" stroke-width="3"/>
<line y1="-1.5" x2="449.222" y2="-1.5" transform="matrix(0.767686 -0.640826 0.767686 0.640826 -328.869 287.873)" stroke="white" stroke-width="3"/>
<line y1="-1.5" x2="449.222" y2="-1.5" transform="matrix(0.767686 -0.640826 0.767686 0.640826 -320.882 287.873)" stroke="white" stroke-width="3"/>
<line y1="-1.5" x2="449.222" y2="-1.5" transform="matrix(0.767686 -0.640826 0.767686 0.640826 -312.892 287.873)" stroke="white" stroke-width="3"/>
<line y1="-1.5" x2="449.222" y2="-1.5" transform="matrix(0.767686 -0.640826 0.767686 0.640826 -312.896 287.873)" stroke="white" stroke-width="3"/>
<line y1="-1.5" x2="449.222" y2="-1.5" transform="matrix(0.767686 -0.640826 0.767686 0.640826 -304.906 287.873)" stroke="white" stroke-width="3"/>
<line y1="-1.5" x2="449.222" y2="-1.5" transform="matrix(0.767686 -0.640826 0.767686 0.640826 -296.919 287.873)" stroke="white" stroke-width="3"/>
<line y1="-1.5" x2="449.222" y2="-1.5" transform="matrix(0.767686 -0.640826 0.767686 0.640826 -288.929 287.873)" stroke="white" stroke-width="3"/>
<line y1="-1.5" x2="449.222" y2="-1.5" transform="matrix(0.767686 -0.640826 0.767686 0.640826 -280.939 287.873)" stroke="white" stroke-width="3"/>
<line y1="-1.5" x2="449.222" y2="-1.5" transform="matrix(0.767686 -0.640826 0.767686 0.640826 -272.949 287.873)" stroke="white" stroke-width="3"/>
<line y1="-1.5" x2="449.222" y2="-1.5" transform="matrix(0.767686 -0.640826 0.767686 0.640826 -264.962 287.873)" stroke="white" stroke-width="3"/>
<line y1="-1.5" x2="449.222" y2="-1.5" transform="matrix(0.767686 -0.640826 0.767686 0.640826 -256.972 287.873)" stroke="white" stroke-width="3"/>
<line y1="-1.5" x2="449.222" y2="-1.5" transform="matrix(0.767686 -0.640826 0.767686 0.640826 -248.98 287.873)" stroke="white" stroke-width="3"/>
<line y1="-1.5" x2="449.222" y2="-1.5" transform="matrix(0.767686 -0.640826 0.767686 0.640826 -240.99 287.873)" stroke="white" stroke-width="3"/>
<line y1="-1.5" x2="449.222" y2="-1.5" transform="matrix(0.767686 -0.640826 0.767686 0.640826 -233.003 287.873)" stroke="white" stroke-width="3"/>
<line y1="-1.5" x2="449.222" y2="-1.5" transform="matrix(0.767686 -0.640826 0.767686 0.640826 -225.013 287.873)" stroke="white" stroke-width="3"/>
<line y1="-1.5" x2="449.222" y2="-1.5" transform="matrix(0.767686 -0.640826 0.767686 0.640826 -217.023 287.873)" stroke="white" stroke-width="3"/>
<line y1="-1.5" x2="449.222" y2="-1.5" transform="matrix(0.767686 -0.640826 0.767686 0.640826 -209.033 287.873)" stroke="white" stroke-width="3"/>
<line y1="-1.5" x2="449.222" y2="-1.5" transform="matrix(0.767686 -0.640826 0.767686 0.640826 -201.046 287.873)" stroke="white" stroke-width="3"/>
<line y1="-1.5" x2="449.222" y2="-1.5" transform="matrix(0.767686 -0.640826 0.767686 0.640826 -193.056 287.873)" stroke="white" stroke-width="3"/>
<line y1="-1.5" x2="449.222" y2="-1.5" transform="matrix(0.767686 -0.640826 0.767686 0.640826 -185.072 287.873)" stroke="white" stroke-width="3"/>
<line y1="-1.5" x2="449.222" y2="-1.5" transform="matrix(0.767686 -0.640826 0.767686 0.640826 -177.082 287.873)" stroke="white" stroke-width="3"/>
<line y1="-1.5" x2="449.222" y2="-1.5" transform="matrix(0.767686 -0.640826 0.767686 0.640826 -169.095 287.873)" stroke="white" stroke-width="3"/>
<line y1="-1.5" x2="449.222" y2="-1.5" transform="matrix(0.767686 -0.640826 0.767686 0.640826 -161.104 287.873)" stroke="white" stroke-width="3"/>
<line y1="-1.5" x2="449.222" y2="-1.5" transform="matrix(0.767686 -0.640826 0.767686 0.640826 -153.115 287.873)" stroke="white" stroke-width="3"/>
<line y1="-1.5" x2="449.222" y2="-1.5" transform="matrix(0.767686 -0.640826 0.767686 0.640826 -145.125 287.873)" stroke="white" stroke-width="3"/>
<line y1="-1.5" x2="449.222" y2="-1.5" transform="matrix(0.767686 -0.640826 0.767686 0.640826 -137.138 287.873)" stroke="white" stroke-width="3"/>
<line y1="-1.5" x2="449.222" y2="-1.5" transform="matrix(0.767686 -0.640826 0.767686 0.640826 -129.147 287.873)" stroke="white" stroke-width="3"/>
<line y1="-1.5" x2="449.222" y2="-1.5" transform="matrix(0.767686 -0.640826 0.767686 0.640826 -121.156 287.873)" stroke="white" stroke-width="3"/>
<line y1="-1.5" x2="449.222" y2="-1.5" transform="matrix(0.767686 -0.640826 0.767686 0.640826 -113.166 287.873)" stroke="white" stroke-width="3"/>
<line y1="-1.5" x2="449.222" y2="-1.5" transform="matrix(0.767686 -0.640826 0.767686 0.640826 -105.179 287.873)" stroke="white" stroke-width="3"/>
<line y1="-1.5" x2="449.222" y2="-1.5" transform="matrix(0.767686 -0.640826 0.767686 0.640826 -97.1885 287.873)" stroke="white" stroke-width="3"/>
<line y1="-1.5" x2="449.222" y2="-1.5" transform="matrix(0.767686 -0.640826 0.767686 0.640826 -89.1992 287.873)" stroke="white" stroke-width="3"/>
<line y1="-1.5" x2="449.222" y2="-1.5" transform="matrix(0.767686 -0.640826 0.767686 0.640826 -81.209 287.873)" stroke="white" stroke-width="3"/>
<line y1="-1.5" x2="449.222" y2="-1.5" transform="matrix(0.767686 -0.640826 0.767686 0.640826 -73.2217 287.873)" stroke="white" stroke-width="3"/>
<line y1="-1.5" x2="449.222" y2="-1.5" transform="matrix(0.767686 -0.640826 0.767686 0.640826 -65.2314 287.873)" stroke="white" stroke-width="3"/>
<line y1="-1.5" x2="449.222" y2="-1.5" transform="matrix(0.767686 -0.640826 0.767686 0.640826 -57.248 287.873)" stroke="white" stroke-width="3"/>
<line y1="-1.5" x2="449.222" y2="-1.5" transform="matrix(0.767686 -0.640826 0.767686 0.640826 -49.2578 287.873)" stroke="white" stroke-width="3"/>
<line y1="-1.5" x2="449.222" y2="-1.5" transform="matrix(0.767686 -0.640826 0.767686 0.640826 -41.2705 287.873)" stroke="white" stroke-width="3"/>
<line y1="-1.5" x2="449.222" y2="-1.5" transform="matrix(0.767686 -0.640826 0.767686 0.640826 -33.2803 287.873)" stroke="white" stroke-width="3"/>
<line y1="-1.5" x2="449.222" y2="-1.5" transform="matrix(0.767686 -0.640826 0.767686 0.640826 -25.291 287.873)" stroke="white" stroke-width="3"/>
<line y1="-1.5" x2="449.222" y2="-1.5" transform="matrix(0.767686 -0.640826 0.767686 0.640826 -17.3008 287.873)" stroke="white" stroke-width="3"/>
<line y1="-1.5" x2="449.222" y2="-1.5" transform="matrix(0.767686 -0.640826 0.767686 0.640826 -9.31348 287.873)" stroke="white" stroke-width="3"/>
<line y1="-1.5" x2="449.222" y2="-1.5" transform="matrix(0.767686 -0.640826 0.767686 0.640826 -1.32324 287.873)" stroke="white" stroke-width="3"/>
<line y1="-1.5" x2="449.222" y2="-1.5" transform="matrix(0.767686 -0.640826 0.767686 0.640826 6.66797 287.873)" stroke="white" stroke-width="3"/>
<line y1="-1.5" x2="449.222" y2="-1.5" transform="matrix(0.767686 -0.640826 0.767686 0.640826 14.6582 287.873)" stroke="white" stroke-width="3"/>
<line y1="-1.5" x2="449.222" y2="-1.5" transform="matrix(0.767686 -0.640826 0.767686 0.640826 22.6455 287.873)" stroke="white" stroke-width="3"/>
<line y1="-1.5" x2="449.222" y2="-1.5" transform="matrix(0.767686 -0.640826 0.767686 0.640826 30.6357 287.873)" stroke="white" stroke-width="3"/>
<line y1="-1.5" x2="449.222" y2="-1.5" transform="matrix(0.767686 -0.640826 0.767686 0.640826 38.623 287.873)" stroke="white" stroke-width="3"/>
<line y1="-1.5" x2="449.222" y2="-1.5" transform="matrix(0.767686 -0.640826 0.767686 0.640826 46.6133 287.873)" stroke="white" stroke-width="3"/>
<line y1="-1.5" x2="449.222" y2="-1.5" transform="matrix(0.767686 -0.640826 0.767686 0.640826 54.6006 287.873)" stroke="white" stroke-width="3"/>
<line y1="-1.5" x2="449.222" y2="-1.5" transform="matrix(0.767686 -0.640826 0.767686 0.640826 62.5908 287.873)" stroke="white" stroke-width="3"/>
<line y1="-1.5" x2="449.222" y2="-1.5" transform="matrix(0.767686 -0.640826 0.767686 0.640826 70.5771 287.873)" stroke="white" stroke-width="3"/>
<line y1="-1.5" x2="449.222" y2="-1.5" transform="matrix(0.767686 -0.640826 0.767686 0.640826 78.5674 287.873)" stroke="white" stroke-width="3"/>
<line y1="-1.5" x2="449.222" y2="-1.5" transform="matrix(0.767686 -0.640826 0.767686 0.640826 86.5547 287.873)" stroke="white" stroke-width="3"/>
<line y1="-1.5" x2="449.222" y2="-1.5" transform="matrix(0.767686 -0.640826 0.767686 0.640826 94.5449 287.873)" stroke="white" stroke-width="3"/>
<line y1="-1.5" x2="449.222" y2="-1.5" transform="matrix(0.767686 -0.640826 0.767686 0.640826 102.534 287.873)" stroke="white" stroke-width="3"/>
<line y1="-1.5" x2="449.222" y2="-1.5" transform="matrix(0.767686 -0.640826 0.767686 0.640826 110.524 287.873)" stroke="white" stroke-width="3"/>
</g>
</g>
</svg>
